<svg width="1508" height="975" viewBox="0 0 1508 975" fill="none" preserveAspectRatio="none" xmlns="http://www.w3.org/2000/svg">
<rect width="1508" height="975" fill="#E5E5E5"/>
<g clip-path="url(#clip0_0_1)">
<rect width="1508" height="975" fill="white"/>
<g filter="url(#filter0_f_0_1)">
<ellipse cx="1239.86" cy="350.93" rx="465.482" ry="357.001" transform="rotate(-0.237911 1239.86 350.93)" fill="#C1BCFF"/>
<ellipse cx="180.304" cy="438.015" rx="465.482" ry="357.001" transform="rotate(-0.237911 180.304 438.015)" fill="#C1BCFF"/>
<ellipse cx="122.345" cy="454.306" rx="362.328" ry="277.721" transform="rotate(-0.237911 122.345 454.306)" fill="#FFD9DD"/>
<ellipse cx="614.876" cy="446.424" rx="362.328" ry="277.721" transform="rotate(-0.237911 614.876 446.424)" fill="#DEB5FF"/>
<ellipse cx="302.647" cy="711.826" rx="330.092" ry="252.916" transform="rotate(-0.237911 302.647 711.826)" fill="#C173FF"/>
<ellipse cx="522.705" cy="606.827" rx="330.092" ry="252.916" transform="rotate(-0.237911 522.705 606.827)" fill="#C173FF"/>
<ellipse cx="1197.16" cy="472.216" rx="401.655" ry="307.877" transform="rotate(-0.237911 1197.16 472.216)" fill="#AAEBFF"/>
<ellipse cx="162.41" cy="476.513" rx="119.916" ry="61.7699" transform="rotate(-0.237911 162.41 476.513)" fill="#FFDA58"/>
<ellipse cx="162.314" cy="453.167" rx="119.916" ry="61.7699" transform="rotate(-0.237911 162.314 453.167)" fill="#FFDD65"/>
</g>
<rect width="1508" height="975" fill="white" fill-opacity="0.82"/>
</g>
<defs>
<filter id="filter0_f_0_1" x="-568.767" y="-289.663" width="2557.69" height="1538" filterUnits="userSpaceOnUse" color-interpolation-filters="sRGB">
<feFlood flood-opacity="0" result="BackgroundImageFix"/>
<feBlend mode="normal" in="SourceGraphic" in2="BackgroundImageFix" result="shape"/>
<feGaussianBlur stdDeviation="141.795" result="effect1_foregroundBlur_0_1"/>
</filter>
<clipPath id="clip0_0_1">
<rect width="1508" height="975" fill="white"/>
</clipPath>
</defs>
</svg>
