<?xml version="1.0" encoding="UTF-8"?>
<svg id="Layer_1" xmlns="http://www.w3.org/2000/svg" version="1.1" viewBox="0 0 2000 2000">
  <!-- Generator: Adobe Illustrator 29.2.1, SVG Export Plug-In . SVG Version: 2.1.0 Build 116)  -->
  <defs>
    <style>
      .st0 {
        fill: #b0d612;
      }
    </style>
  </defs>
  <g>
    <path d="M708.61,879.27h56.43l87.9,242.83h-50.62l-18.47-53.35h-94.39l-18.47,53.35h-50.28l87.9-242.83ZM769.48,1027.02l-32.49-96.1-33.17,96.1h65.67Z"/>
    <path d="M1286.08,1063.27c4.67,6.62,10.83,11.75,18.47,15.39,7.64,3.65,16.59,5.47,26.85,5.47,7.98,0,15.05-1.08,21.2-3.25,6.16-2.16,10.83-5.3,14.02-9.41,3.19-4.1,4.79-9.12,4.79-15.05,0-9.12-4.28-16.64-12.83-22.57-8.55-5.93-22.63-11.29-42.24-16.07-27.36-6.61-48.45-15.67-63.27-27.19-14.82-11.51-22.23-26.62-22.23-45.32,0-14.59,3.82-27.24,11.46-37.96,7.64-10.72,18.3-18.98,31.98-24.8,13.68-5.81,29.41-8.72,47.2-8.72s33.69,3.42,47.71,10.26c14.02,6.84,25.19,16.42,33.52,28.73,8.32,12.31,13.39,26.56,15.22,42.75l-49.59,2.39c-1.14-8.43-3.82-15.85-8.04-22.23-4.22-6.38-9.69-11.34-16.42-14.88-6.73-3.53-14.54-5.3-23.43-5.3-11.63,0-21.09,2.8-28.39,8.38-7.3,5.59-10.72,12.94-10.26,22.06.22,6.39,2.51,11.63,6.84,15.73,4.33,4.1,9.69,7.41,16.07,9.92,6.38,2.51,14.71,5.02,24.97,7.52l4.79,1.37c27.81,6.39,49.36,15.62,64.64,27.7,15.27,12.09,22.91,27.48,22.91,46.17,0,15.05-4.05,27.99-12.14,38.82-8.1,10.83-19.15,19.04-33.17,24.62-14.02,5.58-29.7,8.38-47.03,8.38-19.38,0-36.65-3.42-51.81-10.26-15.17-6.84-27.25-16.59-36.25-29.24-9.01-12.65-14.08-27.41-15.22-44.29l50.28-2.74c1.59,9.12,4.73,16.99,9.41,23.6Z"/>
    <path d="M1628.26,879.27v42.75h-117.31v57.46h113.21v41.73h-113.21v58.14h120.04v42.75h-169.98v-242.83h167.24Z"/>
  </g>
  <g>
    <path class="st0" d="M957.25,879.27h56.43l87.9,242.83h-50.62l-18.47-53.35h-94.4l-18.47,53.35h-50.28l87.9-242.83ZM1018.12,1027.02l-32.49-96.1-33.18,96.1h65.66Z"/>
    <path class="st0" d="M1185.7,879.27v242.83h-49.93v-242.83h49.93Z"/>
    <path class="st0" d="M553.21,1068.35h-.03c-23.18,0-43.59-4.66-61.27-13.97-2.13-1.11-4.21-2.3-6.25-3.56-11-6.76-20.6-15.04-28.78-24.83-5.99-7.15-11.22-15.1-15.69-23.87-10.61-20.79-16.78-44.17-18.52-70.14h130.54v-53.26h-183.79c-.14,80.97-.28,161.93-.42,242.9h40.54c1.44-23.97,2.89-47.95,4.33-71.92l.94-13.96c1.51,3.97,3.24,7.85,5.21,11.64,4.4,8.43,9.93,16.4,16.62,23.9,14.07,15.81,31.4,28.16,51.94,37.02,4.07,1.75,8.18,3.33,12.32,4.73,16.79,5.72,34.22,8.58,52.28,8.58h.03c14.67,0,28.64-1.2,41.91-3.62v-54.8c-12.91,3.45-26.88,5.15-41.91,5.15Z"/>
    <path class="st0" d="M549.43,887.31h-54.8c3.43,12.91,5.15,26.88,5.15,41.91v.03c0,.91-.01,1.82-.03,2.72-.41,24.83-6.23,46.4-17.5,64.8-6.89,11.21-15.35,20.95-25.38,29.22-7.01,5.82-14.78,10.89-23.34,15.26-4.39,2.24-8.9,4.29-13.52,6.12,4.4,8.43,9.93,16.4,16.62,23.9,14.07,15.81,31.4,28.16,51.94,37.02,4.07,1.75,8.18,3.33,12.32,4.73h41.75v-40.28l-75.5-5.12c8.7-3.3,16.95-7.72,24.76-13.25,3.69-2.61,7.3-5.46,10.8-8.58,15.81-14.07,28.14-31.4,37.02-51.94,8.5-19.73,12.94-40.36,13.28-61.88.03-.91.04-1.81.04-2.72v-.03c0-14.67-1.22-28.64-3.62-41.91ZM369.42,1111.21h40.26l4.18-61.53c-13.81,4.89-28.64,8.09-44.45,9.58v51.94Z"/>
  </g>
</svg>